<svg width="36" height="36" viewBox="0 0 36 36" fill="none" xmlns="http://www.w3.org/2000/svg">
<path d="M17.25 33C14.95 33 13 32.2 11.4 30.6C9.8 29 9 27.05 9 24.75V9C9 7.35 9.5875 5.9375 10.7625 4.7625C11.9375 3.5875 13.35 3 15 3C16.65 3 18.0625 3.5875 19.2375 4.7625C20.4125 5.9375 21 7.35 21 9V23.25C21 24.3 20.6375 25.1875 19.9125 25.9125C19.1875 26.6375 18.3 27 17.25 27C16.2 27 15.3125 26.6375 14.5875 25.9125C13.8625 25.1875 13.5 24.3 13.5 23.25V9H15.75V23.25C15.75 23.675 15.8937 24.0312 16.1812 24.3188C16.4688 24.6063 16.825 24.75 17.25 24.75C17.675 24.75 18.0312 24.6063 18.3188 24.3188C18.6062 24.0312 18.75 23.675 18.75 23.25V9C18.75 7.95 18.3875 7.0625 17.6625 6.3375C16.9375 5.6125 16.05 5.25 15 5.25C13.95 5.25 13.0625 5.6125 12.3375 6.3375C11.6125 7.0625 11.25 7.95 11.25 9V24.75C11.25 26.4 11.8375 27.8125 13.0125 28.9875C14.1875 30.1625 15.6 30.75 17.25 30.75C18.9 30.75 20.3125 30.1625 21.4875 28.9875C22.6625 27.8125 23.25 26.4 23.25 24.75V9H25.5V24.75C25.5 27.05 24.7 29 23.1 30.6C21.5 32.2 19.55 33 17.25 33Z" fill="#1D1B20"/>
</svg>
