<svg width="32" height="32" viewBox="0 0 32 32" fill="none" xmlns="http://www.w3.org/2000/svg">
<path d="M23.9646 20.0979L24.05 20.1832V20.0625V19.4925C24.05 19.108 24.2028 18.7391 24.4747 18.4672C24.7466 18.1953 25.1154 18.0425 25.5 18.0425C25.8846 18.0425 26.2534 18.1953 26.5253 18.4672C26.7972 18.7391 26.95 19.108 26.95 19.4925V26.9925C26.95 28.1727 26.4812 29.3046 25.6466 30.1391C24.8121 30.9737 23.6802 31.4425 22.5 31.4425H4.5C3.31979 31.4425 2.18791 30.9737 1.35337 30.1391C0.518838 29.3046 0.05 28.1727 0.05 26.9925V8.99252C0.05 7.81231 0.518838 6.68043 1.35337 5.8459C2.18791 5.01136 3.31979 4.54252 4.5 4.54252H15C15.3846 4.54252 15.7534 4.69529 16.0253 4.96722C16.2972 5.23914 16.45 5.60796 16.45 5.99252C16.45 6.37708 16.2972 6.7459 16.0253 7.01782C15.7534 7.28975 15.3846 7.44252 15 7.44252H4.5C4.08891 7.44252 3.69467 7.60582 3.40398 7.8965C3.1133 8.18719 2.95 8.58143 2.95 8.99252V17.3925V17.5132L3.03536 17.4279L5.25447 15.2087C5.25462 15.2086 5.25477 15.2085 5.25492 15.2083C6.04039 14.4608 7.08319 14.0439 8.1675 14.0439C9.25181 14.0439 10.2946 14.4608 11.0801 15.2083C11.0802 15.2084 11.0804 15.2086 11.0805 15.2087L14.7996 18.9279L14.835 18.9632L14.8704 18.9279L15.9202 17.878C16.6947 17.1096 17.7415 16.6785 18.8325 16.6785C19.9235 16.6785 20.9703 17.1096 21.7448 17.878L23.9646 20.0979ZM2.96464 21.6022L2.95 21.6168V21.6375V26.9925C2.95 27.4036 3.1133 27.7979 3.40398 28.0885C3.69467 28.3792 4.08891 28.5425 4.5 28.5425H20.19H20.3107L20.2254 28.4572L13.7754 22.0072L9.02036 17.2522L9.02037 17.2522L9.01949 17.2513C8.78983 17.0325 8.48475 16.9104 8.1675 16.9104C7.85025 16.9104 7.54517 17.0325 7.31551 17.2513L7.3155 17.2513L7.31464 17.2522L2.96464 21.6022ZM24.05 26.9929V26.9925V24.3075V24.2869L24.0355 24.2723L19.7007 19.9075C19.7007 19.9075 19.7007 19.9075 19.7007 19.9075C19.5885 19.793 19.4546 19.702 19.3068 19.6399C19.159 19.5778 19.0003 19.5459 18.84 19.5459C18.6797 19.5459 18.521 19.5778 18.3732 19.6399C18.2254 19.702 18.0916 19.793 17.9794 19.9074C17.9793 19.9075 17.9793 19.9075 17.9793 19.9075L16.9296 20.9572L16.8944 20.9924L16.9296 21.0278L23.6946 27.8228L23.7352 27.8636L23.7699 27.8177C23.9495 27.58 24.0478 27.2908 24.05 26.9929ZM31.0296 4.96288L31.0298 4.96302C31.1657 5.09782 31.2736 5.25819 31.3472 5.43488C31.4208 5.61158 31.4587 5.8011 31.4587 5.99252C31.4587 6.18394 31.4208 6.37346 31.3472 6.55016C31.2736 6.72685 31.1657 6.88722 31.0298 7.02202L31.0295 7.02231C30.8947 7.15822 30.7343 7.26609 30.5576 7.3397C30.3809 7.41332 30.1914 7.45122 30 7.45122C29.8086 7.45122 29.6191 7.41332 29.4424 7.3397C29.2657 7.26609 29.1053 7.15822 28.9705 7.02231L28.935 7.05752L28.9705 7.0223L27.0355 5.0723L26.95 4.98615V5.10752V13.4925C26.95 13.8771 26.7972 14.2459 26.5253 14.5178C26.2534 14.7898 25.8846 14.9425 25.5 14.9425C25.1154 14.9425 24.7466 14.7898 24.4747 14.5178C24.2028 14.2459 24.05 13.8771 24.05 13.4925V5.10752V4.98615L23.9645 5.0723L22.0296 7.02216L22.0295 7.0223C21.7564 7.29529 21.3861 7.44866 21 7.44866C20.6138 7.44866 20.2434 7.29524 19.9704 7.02216C19.6973 6.74909 19.5439 6.37871 19.5439 5.99252C19.5439 5.8013 19.5815 5.61195 19.6547 5.43528C19.7279 5.25861 19.8351 5.09809 19.9704 4.96288L24.4696 0.463639C24.4697 0.463513 24.4698 0.463388 24.47 0.463263C24.6078 0.331433 24.7703 0.228085 24.9481 0.159139L24.9481 0.159148L24.949 0.15877C25.302 0.0137435 25.698 0.0137435 26.051 0.15877L26.051 0.158779L26.0519 0.159139C26.2297 0.228085 26.3922 0.331434 26.53 0.463263C26.5302 0.463388 26.5303 0.463514 26.5304 0.463639L31.0296 4.96288Z" fill="#1E1E1E" stroke="black" stroke-width="0.1"/>
</svg>
