<svg width="36" height="36" viewBox="0 0 36 36" fill="none" xmlns="http://www.w3.org/2000/svg">
<path d="M16.6476 5.70554H8.11784C5.29134 5.70554 3 7.9968 3 10.8232V27.8823C3 30.7087 5.29134 33 8.11784 33H25.1773C28.0038 33 30.2952 30.7087 30.2952 27.8823L30.2952 19.3528M11.5297 24.4704L17.7365 23.2198C18.066 23.1534 18.3686 22.9911 18.6062 22.7534L32.5007 8.85175C33.1668 8.18523 33.1664 7.10485 32.4997 6.4389L29.5563 3.49896C28.8898 2.83328 27.81 2.83374 27.1441 3.49998L13.2481 17.4031C13.011 17.6404 12.8491 17.9423 12.7826 18.2711L11.5297 24.4704Z" stroke="#247CFF" stroke-width="2" stroke-linecap="round" stroke-linejoin="round"/>
</svg>
