<svg width="36" height="36" viewBox="0 0 36 36" fill="none" xmlns="http://www.w3.org/2000/svg">
<path d="M13.8748 33L13.2748 28.2C12.9498 28.075 12.6436 27.925 12.3561 27.75C12.0686 27.575 11.7873 27.3875 11.5123 27.1875L7.0498 29.0625L2.9248 21.9375L6.7873 19.0125C6.7623 18.8375 6.7498 18.6688 6.7498 18.5063V17.4938C6.7498 17.3313 6.7623 17.1625 6.7873 16.9875L2.9248 14.0625L7.0498 6.9375L11.5123 8.8125C11.7873 8.6125 12.0748 8.425 12.3748 8.25C12.6748 8.075 12.9748 7.925 13.2748 7.8L13.8748 3H22.1248L22.7248 7.8C23.0498 7.925 23.3561 8.075 23.6436 8.25C23.9311 8.425 24.2123 8.6125 24.4873 8.8125L28.9498 6.9375L33.0748 14.0625L29.2123 16.9875C29.2373 17.1625 29.2498 17.3313 29.2498 17.4938V18.5063C29.2498 18.6688 29.2248 18.8375 29.1748 19.0125L33.0373 21.9375L28.9123 29.0625L24.4873 27.1875C24.2123 27.3875 23.9248 27.575 23.6248 27.75C23.3248 27.925 23.0248 28.075 22.7248 28.2L22.1248 33H13.8748ZM16.4998 30H19.4623L19.9873 26.025C20.7623 25.825 21.4811 25.5312 22.1436 25.1437C22.8061 24.7563 23.4123 24.2875 23.9623 23.7375L27.6748 25.275L29.1373 22.725L25.9123 20.2875C26.0373 19.9375 26.1248 19.5688 26.1748 19.1813C26.2248 18.7938 26.2498 18.4 26.2498 18C26.2498 17.6 26.2248 17.2063 26.1748 16.8188C26.1248 16.4313 26.0373 16.0625 25.9123 15.7125L29.1373 13.275L27.6748 10.725L23.9623 12.3C23.4123 11.725 22.8061 11.2438 22.1436 10.8563C21.4811 10.4688 20.7623 10.175 19.9873 9.975L19.4998 6H16.5373L16.0123 9.975C15.2373 10.175 14.5186 10.4688 13.8561 10.8563C13.1936 11.2438 12.5873 11.7125 12.0373 12.2625L8.3248 10.725L6.8623 13.275L10.0873 15.675C9.9623 16.05 9.8748 16.425 9.8248 16.8C9.7748 17.175 9.7498 17.575 9.7498 18C9.7498 18.4 9.7748 18.7875 9.8248 19.1625C9.8748 19.5375 9.9623 19.9125 10.0873 20.2875L6.8623 22.725L8.3248 25.275L12.0373 23.7C12.5873 24.275 13.1936 24.7563 13.8561 25.1437C14.5186 25.5312 15.2373 25.825 16.0123 26.025L16.4998 30ZM18.0748 23.25C19.5248 23.25 20.7623 22.7375 21.7873 21.7125C22.8123 20.6875 23.3248 19.45 23.3248 18C23.3248 16.55 22.8123 15.3125 21.7873 14.2875C20.7623 13.2625 19.5248 12.75 18.0748 12.75C16.5998 12.75 15.3561 13.2625 14.3436 14.2875C13.3311 15.3125 12.8248 16.55 12.8248 18C12.8248 19.45 13.3311 20.6875 14.3436 21.7125C15.3561 22.7375 16.5998 23.25 18.0748 23.25Z" fill="#918E8E"/>
</svg>
