<svg width="101" height="70" viewBox="0 0 101 70" fill="none" xmlns="http://www.w3.org/2000/svg">
<path d="M30.333 1.8335H37.6663L42.5797 26.3818C42.7473 27.2259 43.2065 27.9841 43.8768 28.5237C44.5472 29.0633 45.386 29.35 46.2463 29.3335H64.0663C64.9267 29.35 65.7655 29.0633 66.4358 28.5237C67.1062 27.9841 67.5654 27.2259 67.733 26.3818L70.6663 11.0002H39.4997M46.833 38.5002C46.833 39.5127 46.0122 40.3335 44.9997 40.3335C43.9872 40.3335 43.1663 39.5127 43.1663 38.5002C43.1663 37.4876 43.9872 36.6668 44.9997 36.6668C46.0122 36.6668 46.833 37.4876 46.833 38.5002ZM66.9997 38.5002C66.9997 39.5127 66.1789 40.3335 65.1663 40.3335C64.1538 40.3335 63.333 39.5127 63.333 38.5002C63.333 37.4876 64.1538 36.6668 65.1663 36.6668C66.1789 36.6668 66.9997 37.4876 66.9997 38.5002Z" stroke="#247CFF" stroke-width="2" stroke-linecap="round" stroke-linejoin="round"/>
<path d="M28.5327 65V54.16L23.8527 62.5H22.7527L18.0527 54.16V65H16.2527V50.8H18.1527L23.2927 60.02L28.4527 50.8H30.3327V65H28.5327ZM33.9332 67.84C34.1065 67.8533 34.2799 67.8667 34.4532 67.88C34.6265 67.9067 34.7599 67.92 34.8532 67.92C35.0665 67.92 35.2532 67.8467 35.4132 67.7C35.5732 67.5533 35.7465 67.2667 35.9332 66.84C36.1332 66.4267 36.3865 65.8133 36.6932 65L32.2732 54.56H34.1332L37.6532 63.22L40.8332 54.56H42.5732L37.4932 67.74C37.3732 68.0467 37.1932 68.3333 36.9532 68.6C36.7265 68.88 36.4332 69.1 36.0732 69.26C35.7132 69.42 35.2799 69.5 34.7732 69.5C34.6532 69.5 34.5265 69.4933 34.3932 69.48C34.2732 69.4667 34.1199 69.44 33.9332 69.4V67.84ZM48.2234 57.8C48.2234 56.9333 48.37 56.0867 48.6634 55.26C48.97 54.42 49.41 53.66 49.9834 52.98C50.57 52.2867 51.2834 51.74 52.1234 51.34C52.9634 50.9267 53.9167 50.72 54.9834 50.72C56.25 50.72 57.3367 51.0133 58.2434 51.6C59.15 52.1733 59.8234 52.9133 60.2634 53.82L58.8434 54.74C58.5634 54.14 58.2034 53.6667 57.7634 53.32C57.3367 52.96 56.87 52.7067 56.3634 52.56C55.87 52.4133 55.3834 52.34 54.9034 52.34C54.1167 52.34 53.4167 52.5 52.8034 52.82C52.2034 53.14 51.6967 53.5667 51.2834 54.1C50.87 54.6333 50.5567 55.2333 50.3434 55.9C50.1434 56.5533 50.0434 57.2133 50.0434 57.88C50.0434 58.6133 50.1634 59.32 50.4034 60C50.6567 60.68 51.0034 61.28 51.4434 61.8C51.8834 62.32 52.4034 62.7333 53.0034 63.04C53.6034 63.3467 54.2567 63.5 54.9634 63.5C55.4567 63.5 55.9634 63.4133 56.4834 63.24C57.0034 63.0667 57.49 62.8 57.9434 62.44C58.3967 62.0667 58.7567 61.5867 59.0234 61L60.5234 61.82C60.23 62.5267 59.7767 63.1267 59.1634 63.62C58.55 64.1133 57.8634 64.4867 57.1034 64.74C56.3567 64.9933 55.6167 65.12 54.8834 65.12C53.91 65.12 53.0167 64.9133 52.2034 64.5C51.39 64.0733 50.6834 63.5133 50.0834 62.82C49.4967 62.1133 49.0367 61.3267 48.7034 60.46C48.3834 59.58 48.2234 58.6933 48.2234 57.8ZM61.6762 61.98C61.6762 61.3133 61.8628 60.74 62.2362 60.26C62.6228 59.7667 63.1495 59.3867 63.8162 59.12C64.4828 58.8533 65.2562 58.72 66.1362 58.72C66.6028 58.72 67.0962 58.76 67.6162 58.84C68.1362 58.9067 68.5962 59.0133 68.9962 59.16V58.4C68.9962 57.6 68.7562 56.9733 68.2762 56.52C67.7962 56.0533 67.1162 55.82 66.2362 55.82C65.6628 55.82 65.1095 55.9267 64.5762 56.14C64.0562 56.34 63.5028 56.6333 62.9162 57.02L62.2762 55.78C62.9562 55.3133 63.6362 54.9667 64.3162 54.74C64.9962 54.5 65.7028 54.38 66.4362 54.38C67.7695 54.38 68.8228 54.7533 69.5962 55.5C70.3695 56.2333 70.7562 57.26 70.7562 58.58V63C70.7562 63.2133 70.7962 63.3733 70.8762 63.48C70.9695 63.5733 71.1162 63.6267 71.3162 63.64V65C71.1428 65.0267 70.9895 65.0467 70.8562 65.06C70.7362 65.0733 70.6362 65.08 70.5562 65.08C70.1428 65.08 69.8295 64.9667 69.6162 64.74C69.4162 64.5133 69.3028 64.2733 69.2762 64.02L69.2362 63.36C68.7828 63.9467 68.1895 64.4 67.4562 64.72C66.7228 65.04 65.9962 65.2 65.2762 65.2C64.5828 65.2 63.9628 65.06 63.4162 64.78C62.8695 64.4867 62.4428 64.1 62.1362 63.62C61.8295 63.1267 61.6762 62.58 61.6762 61.98ZM68.4762 62.72C68.6362 62.5333 68.7628 62.3467 68.8562 62.16C68.9495 61.96 68.9962 61.7933 68.9962 61.66V60.36C68.5828 60.2 68.1495 60.08 67.6962 60C67.2428 59.9067 66.7962 59.86 66.3562 59.86C65.4628 59.86 64.7362 60.04 64.1762 60.4C63.6295 60.7467 63.3562 61.2267 63.3562 61.84C63.3562 62.1733 63.4428 62.5 63.6162 62.82C63.8028 63.1267 64.0695 63.38 64.4162 63.58C64.7762 63.78 65.2162 63.88 65.7362 63.88C66.2828 63.88 66.8028 63.7733 67.2962 63.56C67.7895 63.3333 68.1828 63.0533 68.4762 62.72ZM79.0904 56.1C78.2104 56.1133 77.4304 56.34 76.7504 56.78C76.0837 57.2067 75.6104 57.8 75.3304 58.56V65H73.5704V54.56H75.2104V56.98C75.5704 56.26 76.0437 55.68 76.6304 55.24C77.2304 54.7867 77.8571 54.5333 78.5104 54.48C78.6437 54.48 78.7571 54.48 78.8504 54.48C78.9437 54.48 79.0237 54.4867 79.0904 54.5V56.1ZM86.236 64.48C86.0893 64.5467 85.8893 64.6333 85.636 64.74C85.3827 64.8467 85.0893 64.94 84.756 65.02C84.4227 65.1 84.0693 65.14 83.696 65.14C83.2693 65.14 82.876 65.0667 82.516 64.92C82.156 64.76 81.8693 64.52 81.656 64.2C81.4427 63.8667 81.336 63.4533 81.336 62.96V55.94H79.916V54.56H81.336V51.08H83.096V54.56H85.436V55.94H83.096V62.42C83.1227 62.7933 83.2493 63.0733 83.476 63.26C83.7027 63.4333 83.9693 63.52 84.276 63.52C84.6227 63.52 84.9427 63.46 85.236 63.34C85.5293 63.22 85.7227 63.1333 85.816 63.08L86.236 64.48Z" fill="#247CFF"/>
</svg>
