<svg width="18" height="18" viewBox="0 0 18 18" fill="none" xmlns="http://www.w3.org/2000/svg">
<g clip-path="url(#clip0_576_562)">
<path d="M2.87071 17.5H13.2987C13.9451 17.4982 14.5643 17.2385 15.0204 16.778C15.4766 16.3176 15.7325 15.6939 15.732 15.0439V9.77437C15.732 9.58895 15.6587 9.41111 15.5283 9.28C15.398 9.14888 15.2211 9.07522 15.0368 9.07522C14.8524 9.07522 14.6755 9.14888 14.5452 9.28C14.4148 9.41111 14.3416 9.58895 14.3416 9.77437V15.0439C14.3425 15.3231 14.2332 15.5914 14.0377 15.7897C13.8422 15.988 13.5764 16.1002 13.2987 16.1017H2.87071C2.59303 16.1002 2.32727 15.988 2.13177 15.7897C1.93626 15.5914 1.82698 15.3231 1.82791 15.0439V4.57478C1.82698 4.29551 1.93626 4.02729 2.13177 3.82897C2.32727 3.63065 2.59303 3.51844 2.87071 3.51696H8.08473C8.26911 3.51696 8.44594 3.4433 8.57631 3.31218C8.70669 3.18106 8.77993 3.00323 8.77993 2.8178C8.77993 2.63238 8.70669 2.45455 8.57631 2.32343C8.44594 2.19231 8.26911 2.11865 8.08473 2.11865H2.87071C2.22438 2.1205 1.60519 2.38016 1.14901 2.84063C0.692835 3.3011 0.436946 3.92477 0.437501 4.57478V15.0439C0.436946 15.6939 0.692835 16.3176 1.14901 16.778C1.60519 17.2385 2.22438 17.4982 2.87071 17.5Z" fill="#247CFF"/>
<path d="M7.01074 8.09187L6.46222 10.6186C6.43739 10.7332 6.44164 10.8523 6.47456 10.9648C6.50748 11.0773 6.56803 11.1797 6.65062 11.2625C6.73435 11.3433 6.8362 11.4025 6.94754 11.4353C7.05887 11.468 7.17642 11.4733 7.29021 11.4506L9.79711 10.8976C9.92728 10.8688 10.0465 10.8031 10.1405 10.7081L16.4766 4.33602C16.6703 4.14125 16.824 3.91001 16.9288 3.65552C17.0336 3.40102 17.0876 3.12824 17.0876 2.85277C17.0876 2.5773 17.0336 2.30453 16.9288 2.05003C16.824 1.79553 16.6703 1.56429 16.4766 1.36952C16.0795 0.987877 15.5514 0.774902 15.0021 0.774902C14.4528 0.774902 13.9247 0.987877 13.5276 1.36952L7.20122 7.74789C7.10627 7.84183 7.04016 7.96122 7.01074 8.09187ZM14.5106 2.35882C14.6428 2.23139 14.8189 2.16026 15.0021 2.16026C15.1853 2.16026 15.3613 2.23139 15.4936 2.35882C15.6222 2.4907 15.6943 2.66805 15.6943 2.85277C15.6943 3.03749 15.6222 3.21484 15.4936 3.34672L15.0021 3.84102L14.0191 2.85242L14.5106 2.35882ZM8.32328 8.59106L13.0326 3.84312L14.0059 4.82683L9.29448 9.57617L8.04659 9.85164L8.32328 8.59106Z" fill="#247CFF"/>
</g>
<defs>
<clipPath id="clip0_576_562">
<rect width="16.6849" height="16.7797" fill="white" transform="translate(0.4375 0.720215)"/>
</clipPath>
</defs>
</svg>
