<svg width="40" height="40" viewBox="0 0 40 40" fill="none" xmlns="http://www.w3.org/2000/svg">
<path d="M29.9834 2.65943C28.3021 2.48152 26.6122 2.39505 24.9215 2.40065C19.3161 2.40065 15.833 5.96988 15.833 11.7171V15.6184H11.1243C10.6643 15.6181 10.2912 15.9908 10.291 16.4508V22.8694C10.2907 23.3294 10.6634 23.7024 11.1234 23.7027H15.833V36.5673C15.8327 37.0273 16.2054 37.4003 16.6654 37.4006H23.2956C23.7556 37.401 24.1286 37.0282 24.1289 36.5682V23.7027H28.823C29.2417 23.7026 29.5955 23.3921 29.6498 22.9768L30.4783 16.5592C30.5378 16.103 30.2162 15.6849 29.76 15.6254C29.724 15.6208 29.6878 15.6184 29.6515 15.6184H24.1289V12.3534C24.1289 10.7372 24.4544 10.0618 26.4759 10.0618L29.8743 10.0602C30.3344 10.0604 30.7074 9.68774 30.7077 9.22773V3.48626C30.7078 3.06796 30.398 2.71437 29.9834 2.65943ZM29.041 8.39348L26.4759 8.39511C22.8789 8.39511 22.4622 10.6542 22.4622 12.3534V16.4519C22.462 16.9118 22.8347 17.2849 23.2947 17.2851H28.7041L28.0905 22.0361H23.2956C22.8356 22.0359 22.4625 22.4085 22.4622 22.8685V35.734H17.4997V22.8694C17.5 22.4094 17.1273 22.0364 16.6674 22.0361H11.9577V17.2851H16.6663C17.1263 17.2854 17.4994 16.9127 17.4997 16.4527V11.7171C17.4997 6.92701 20.2746 4.06731 24.9215 4.06731C26.6029 4.06731 28.1214 4.15846 29.041 4.23821V8.39348Z" fill="#1E1E1E"/>
</svg>
