<svg width="22" height="20" viewBox="0 0 22 20" fill="none" xmlns="http://www.w3.org/2000/svg">
<path d="M10.1391 4.3954L10.5742 5.16385L11.0093 4.39541C11.3378 3.81522 11.8885 3.03196 12.7031 2.42313L12.4038 2.02263L12.7031 2.42313C13.5449 1.79395 14.4922 1.47803 15.5309 1.47803C18.4353 1.47803 20.6484 3.76326 20.6484 6.86667C20.6484 8.52076 19.9686 9.93651 18.6923 11.4249C17.4035 12.9279 15.5491 14.4573 13.2569 16.3451L13.2569 16.3451L13.2565 16.3454C12.4819 16.9834 11.6017 17.7083 10.6865 18.4818L10.6863 18.482C10.658 18.506 10.6184 18.5215 10.5742 18.5215C10.53 18.5215 10.4905 18.506 10.4622 18.482L10.4619 18.4818C9.54727 17.7088 8.66755 16.9842 7.89362 16.3468L7.89203 16.3455L7.89202 16.3455C5.59958 14.4575 3.74511 12.928 2.45618 11.4249C1.17983 9.93651 0.5 8.52076 0.5 6.86667C0.5 3.76326 2.71314 1.47803 5.61755 1.47803C6.65622 1.47803 7.60354 1.79395 8.44533 2.42313C9.25992 3.03197 9.81061 3.81519 10.1391 4.3954Z" fill="#CE1126" stroke="#777EA5"/>
</svg>
