<svg width="22" height="20" viewBox="0 0 22 20" fill="none" xmlns="http://www.w3.org/2000/svg">
<path d="M10.1391 4.39588L10.5742 5.16434L11.0093 4.3959C11.3378 3.81571 11.8885 3.03245 12.7031 2.42362L12.4038 2.02312L12.7031 2.42362C13.5449 1.79444 14.4922 1.47852 15.5309 1.47852C18.4353 1.47852 20.6484 3.76375 20.6484 6.86716C20.6484 8.52125 19.9686 9.937 18.6923 11.4254C17.4035 12.9284 15.5491 14.4578 13.2569 16.3456L13.2569 16.3456L13.2565 16.3459C12.4819 16.9839 11.6017 17.7088 10.6865 18.4823L10.6863 18.4825C10.658 18.5064 10.6184 18.522 10.5742 18.522C10.53 18.522 10.4905 18.5065 10.4622 18.4825L10.4619 18.4823C9.54727 17.7093 8.66755 16.9847 7.89362 16.3473L7.89203 16.346L7.89202 16.346C5.59958 14.4579 3.74511 12.9285 2.45618 11.4254C1.17983 9.937 0.5 8.52125 0.5 6.86716C0.5 3.76375 2.71314 1.47852 5.61755 1.47852C6.65622 1.47852 7.60354 1.79444 8.44533 2.42362C9.25992 3.03246 9.81061 3.81568 10.1391 4.39588Z" fill="white" stroke="#777EA5"/>
</svg>
