<svg width="40" height="40" viewBox="0 0 40 40" fill="none" xmlns="http://www.w3.org/2000/svg">
<path d="M20.0005 11.4414C18.3079 11.4414 16.6533 11.9433 15.2459 12.8837C13.8385 13.8241 12.7416 15.1607 12.0938 16.7245C11.4461 18.2883 11.2766 20.0091 11.6068 21.6692C11.937 23.3293 12.7521 24.8542 13.949 26.0511C15.1459 27.248 16.6708 28.063 18.3309 28.3933C19.991 28.7235 21.7118 28.554 23.2756 27.9063C24.8394 27.2585 26.176 26.1616 27.1164 24.7542C28.0568 23.3468 28.5587 21.6922 28.5587 19.9996C28.5587 18.8757 28.3374 17.7628 27.9073 16.7245C27.4772 15.6861 26.8468 14.7427 26.0521 13.948C25.2574 13.1533 24.314 12.5229 23.2756 12.0928C22.2373 11.6627 21.1244 11.4414 20.0005 11.4414ZM20.0005 25.5555C18.9017 25.5555 17.8275 25.2296 16.9138 24.6191C16.0001 24.0086 15.288 23.1409 14.8675 22.1257C14.447 21.1104 14.3369 19.9933 14.5513 18.9156C14.7657 17.8378 15.2949 16.8478 16.0719 16.0708C16.8489 15.2938 17.8389 14.7646 18.9167 14.5503C19.9944 14.3359 21.1116 14.4459 22.1268 14.8664C23.142 15.287 24.0097 15.9991 24.6202 16.9128C25.2307 17.8265 25.5566 18.9007 25.5566 19.9996C25.5566 20.7292 25.413 21.4517 25.1338 22.1258C24.8546 22.8 24.4454 23.4125 23.9294 23.9284C23.4135 24.4444 22.801 24.8536 22.1268 25.1328C21.4527 25.412 20.7302 25.5556 20.0005 25.5555Z" fill="#1E1E1E"/>
<path d="M36.5664 13.1283C36.5391 11.7458 36.2774 10.3779 35.7923 9.08289C35.3731 7.97103 34.7171 6.96362 33.8699 6.13046C33.0379 5.28236 32.0308 4.62625 30.9188 4.20801C29.6239 3.72265 28.2559 3.46089 26.8733 3.43391C25.0963 3.35301 24.5282 3.33301 20.002 3.33301C15.4759 3.33301 14.9074 3.35177 13.1293 3.43391C11.7467 3.46123 10.3788 3.72298 9.08387 4.20801C7.9717 4.62663 6.96416 5.28268 6.13143 6.13046C5.28287 6.96252 4.62674 7.97025 4.2091 9.08289C3.72408 10.3779 3.46233 11.7458 3.435 13.1283C3.35285 14.9054 3.33398 15.4735 3.33398 19.9997C3.33398 24.5258 3.35285 25.0939 3.43497 26.8709C3.4623 28.2535 3.72406 29.6215 4.2091 30.9165C4.62686 32.029 5.28298 33.0367 6.13143 33.8689C6.96457 34.7161 7.97199 35.3721 9.08387 35.7912C10.3789 36.2761 11.7467 36.5379 13.1293 36.5654C14.9074 36.6462 15.4745 36.6663 20.0007 36.6663C24.5268 36.6663 25.0949 36.6475 26.872 36.5654C28.2546 36.538 29.6225 36.2763 30.9174 35.7912C32.0248 35.3631 33.0304 34.7083 33.8699 33.8689C34.7094 33.0294 35.3642 32.0238 35.7923 30.9165C36.2779 29.6216 36.5397 28.2536 36.5664 26.8709C36.6473 25.0926 36.666 24.5258 36.666 19.9997C36.666 15.4735 36.6473 14.9054 36.5664 13.1283ZM33.5681 26.7351C33.5553 27.792 33.3613 28.8389 32.9947 29.8302C32.7173 30.549 32.2925 31.2017 31.7476 31.7463C31.2027 32.291 30.5499 32.7155 29.831 32.9926C28.8399 33.36 27.7928 33.5539 26.7359 33.5659C24.9791 33.6466 24.4514 33.6628 20.0006 33.6628C15.5497 33.6628 15.0235 33.6466 13.2672 33.5659C12.2103 33.5538 11.1633 33.3599 10.1721 32.9926C9.44816 32.725 8.79318 32.2991 8.25502 31.7459C7.701 31.209 7.27492 30.5542 7.00835 29.8302C6.64089 28.8391 6.44694 27.7921 6.43502 26.7351C6.35418 24.9783 6.3381 24.4506 6.3381 19.9998C6.3381 15.5489 6.35558 15.0227 6.43502 13.2645C6.44833 12.2077 6.64224 11.1609 7.00835 10.1695C7.27587 9.44553 7.70181 8.79054 8.25502 8.25239C8.79224 7.69805 9.4475 7.27194 10.1721 7.00572C11.1632 6.63831 12.2102 6.44436 13.2672 6.43239C15.024 6.35157 15.5517 6.33547 20.0006 6.33547C24.4494 6.33547 24.9776 6.35296 26.7359 6.43239C27.7927 6.44571 28.8395 6.63961 29.831 7.00572C30.5501 7.28281 31.2031 7.7075 31.7481 8.25242C32.293 8.79733 32.7177 9.45038 32.9947 10.1695C33.3622 11.1606 33.5561 12.2075 33.5681 13.2645C33.6489 15.0228 33.665 15.549 33.665 19.9998C33.665 24.4506 33.6489 24.9768 33.5681 26.7351Z" fill="#1E1E1E"/>
<path d="M28.8985 9.10254C28.3681 9.10264 27.8589 9.31338 27.4839 9.68842C27.109 10.0635 26.8984 10.5721 26.8984 11.1024C26.8985 11.6327 27.1092 12.1413 27.4842 12.5162C27.8592 12.8912 28.3678 13.1018 28.8981 13.1018C29.4284 13.1018 29.937 12.8912 30.312 12.5162C30.687 12.1413 30.8977 11.6327 30.8977 11.1024C30.8978 10.5721 30.6872 10.0635 30.3122 9.68842C29.9373 9.31338 29.4288 9.10264 28.8985 9.10254Z" fill="#1E1E1E"/>
</svg>
