<svg width="30" height="23" viewBox="0 0 30 23" fill="none" xmlns="http://www.w3.org/2000/svg">
<path d="M29.6875 3.25L28.5 2.0625L17.5 13.0625C16.125 14.4375 13.8125 14.4375 12.4375 13.0625L1.4375 2.125L0.25 3.3125L8.4375 11.5L0.25 19.6875L1.4375 20.875L9.625 12.6875L11.25 14.3125C12.25 15.3125 13.5625 15.875 14.9375 15.875C16.3125 15.875 17.625 15.3125 18.625 14.3125L20.25 12.6875L28.4375 20.875L29.625 19.6875L21.4375 11.5L29.6875 3.25Z" fill="#1E1E1E"/>
<path d="M27.375 23H2.6875C1.25 23 0.0625 21.8125 0.0625 20.375V2.75C0.0625 1.3125 1.25 0.125 2.6875 0.125H27.375C28.8125 0.125 30 1.3125 30 2.75V20.375C30 21.8125 28.8125 23 27.375 23ZM2.625 1.8125C2.125 1.8125 1.75 2.1875 1.75 2.6875V20.3125C1.75 20.8125 2.125 21.1875 2.625 21.1875H27.3125C27.8125 21.1875 28.1875 20.8125 28.1875 20.3125V2.6875C28.1875 2.1875 27.8125 1.8125 27.3125 1.8125H2.625Z" fill="#1E1E1E"/>
</svg>
