<svg width="28" height="29" viewBox="0 0 28 29" fill="none" xmlns="http://www.w3.org/2000/svg">
<path d="M26.492 20.7109C25.3514 19.5391 22.1092 17.3438 19.9842 17.3438C19.492 17.3438 19.0623 17.4531 18.7108 17.6797C17.6717 18.3438 16.8436 18.8594 16.4451 18.8594C16.2264 18.8594 15.992 18.6641 15.4764 18.2188L15.3904 18.1406C13.9608 16.8984 13.6561 16.5781 13.1014 16L12.9608 15.8516C12.8592 15.75 12.7733 15.6563 12.6873 15.5703C12.2029 15.0703 11.8514 14.7109 10.6092 13.3047L10.5545 13.2422C9.96076 12.5703 9.57014 12.1328 9.5467 11.8125C9.52326 11.5 9.7967 10.9922 10.492 10.0469C11.3358 8.90625 11.367 7.5 10.5936 5.86719C9.97639 4.57812 8.96857 3.34375 8.07795 2.25781L7.99982 2.16406C7.2342 1.22656 6.34357 0.757812 5.35139 0.757812C4.24982 0.757812 3.33576 1.35156 2.85139 1.66406C2.81232 1.6875 2.77326 1.71875 2.7342 1.74219C1.64826 2.42969 0.859199 3.375 0.562324 4.33594C0.117011 5.78125 -0.179863 7.65625 1.95295 11.5547C3.7967 14.9297 5.46857 17.1953 8.12482 19.9219C10.6248 22.4844 11.7342 23.3125 14.2186 25.1094C16.9842 27.1094 19.6404 28.2578 21.4998 28.2578C23.2264 28.2578 24.5858 28.2578 26.5233 25.9219C28.5545 23.4688 27.7108 21.9688 26.492 20.7109ZM25.5936 25.0781C24.0311 26.9688 23.1326 26.9688 21.5076 26.9688C19.9217 26.9688 17.4608 25.875 14.9295 24.0547C12.5076 22.3047 11.4295 21.5 8.99982 19.0078C6.42951 16.375 4.81232 14.1797 3.03107 10.9219C1.14826 7.47656 1.3592 5.96875 1.74201 4.72656C1.94514 4.0625 2.55451 3.35156 3.38264 2.83594C3.4217 2.8125 3.46076 2.78125 3.50764 2.75781C3.9217 2.49219 4.6092 2.04688 5.3592 2.04688C5.9842 2.04688 6.53889 2.35938 7.07014 3.00781L7.14826 3.10156C9.14045 5.53906 10.6951 7.69531 9.52326 9.28906C8.69514 10.4062 8.25764 11.1641 8.32795 11.9453C8.39045 12.7031 8.89826 13.2734 9.66389 14.1328L9.71857 14.1953C10.9764 15.6172 11.3358 15.9922 11.8358 16.5C11.9217 16.5859 12.0076 16.6797 12.1092 16.7812L12.2498 16.9297C12.828 17.5312 13.1483 17.8594 14.617 19.1484L14.7029 19.2266C15.3279 19.7734 15.7889 20.1719 16.4608 20.1719C17.1561 20.1719 17.9217 19.7344 19.3748 18.8047C19.5233 18.7109 19.7342 18.6562 19.9998 18.6562C21.6951 18.6562 24.617 20.5938 25.6404 21.6484C26.5779 22.6016 27.0467 23.3203 25.5936 25.0781Z" fill="#1E1E1E"/>
</svg>
