<svg width="40" height="40" viewBox="0 0 40 40" fill="none" xmlns="http://www.w3.org/2000/svg">
<path d="M38.3184 6.58335C38.3186 6.28896 38.2407 5.99978 38.0928 5.74526C37.9449 5.49074 37.7322 5.27996 37.4763 5.1344C37.2204 4.98884 36.9305 4.9137 36.6361 4.91663C36.3418 4.91955 36.0534 5.00044 35.8005 5.15105C34.8249 5.73169 33.7747 6.17636 32.6788 6.47272C31.1138 5.12977 29.1177 4.39489 27.0555 4.4024C24.7931 4.40501 22.6203 5.28672 20.9958 6.86137C19.3714 8.43602 18.4224 10.5803 18.3494 12.8415C13.8894 12.1303 9.84714 9.80241 6.9935 6.30177C6.82156 6.09316 6.60198 5.92896 6.35327 5.82301C6.10456 5.71706 5.83402 5.67248 5.56447 5.69302C5.29507 5.7152 5.03513 5.80267 4.80712 5.94787C4.57912 6.09306 4.38991 6.29162 4.25587 6.52635C3.56841 7.72604 3.17359 9.07095 3.10345 10.4519C3.03332 11.8328 3.28985 13.2108 3.85222 14.4739L3.84897 14.4772C3.59621 14.6329 3.38762 14.8508 3.24315 15.1101C3.09867 15.3694 3.02314 15.6615 3.02377 15.9583C3.02071 16.2032 3.0354 16.448 3.06772 16.6907C3.23795 18.7878 4.16736 20.7508 5.68165 22.2116C5.57893 22.4073 5.51623 22.6215 5.49722 22.8417C5.47822 23.0619 5.50329 23.2837 5.57097 23.4941C6.23116 25.551 7.63514 27.2876 9.50815 28.3639C7.60522 29.0998 5.55052 29.3563 3.52507 29.111C3.15019 29.0639 2.77045 29.1457 2.44815 29.3429C2.12585 29.54 1.88012 29.8408 1.75126 30.196C1.62241 30.5512 1.61809 30.9396 1.73901 31.2975C1.85992 31.6555 2.0989 31.9617 2.41674 32.166C5.90023 34.4096 9.9562 35.6024 14.0997 35.6019C18.7985 35.6547 23.383 34.1533 27.1401 31.331C30.8972 28.5087 33.6163 24.5239 34.8744 19.9963C35.4628 18.0241 35.7632 15.9771 35.7663 13.9189C35.7663 13.8099 35.7663 13.6976 35.7647 13.5853C36.6349 12.6469 37.309 11.5441 37.7475 10.3418C38.186 9.13945 38.3801 7.86167 38.3184 6.58335ZM32.8073 11.9365C32.532 12.2621 32.3927 12.6812 32.4183 13.1068C32.4346 13.3818 32.433 13.6584 32.433 13.9189C32.4295 15.6582 32.1746 17.3878 31.6761 19.054C30.6486 22.9064 28.3581 26.3024 25.1713 28.6984C21.9845 31.0943 18.0858 32.3515 14.0997 32.2686C12.6678 32.269 11.2409 32.1007 9.84839 31.7673C11.6241 31.195 13.2844 30.3128 14.7524 29.1615C15.0227 28.9486 15.2206 28.6572 15.3188 28.3274C15.4171 27.9976 15.4108 27.6455 15.301 27.3194C15.1911 26.9933 14.9831 26.7091 14.7053 26.5059C14.4276 26.3028 14.0938 26.1905 13.7497 26.1846C12.3644 26.163 11.0416 25.6046 10.0599 24.627C10.3089 24.5798 10.5563 24.5212 10.8021 24.4512C11.1621 24.3487 11.4772 24.128 11.6965 23.8247C11.9159 23.5214 12.0268 23.1531 12.0114 22.7791C11.996 22.4051 11.8552 22.0472 11.6116 21.763C11.368 21.4787 11.0359 21.2848 10.6686 21.2122C9.86453 21.0534 9.10788 20.7114 8.4575 20.2126C7.80711 19.7138 7.28051 19.0717 6.91864 18.3363C7.21985 18.3774 7.52299 18.4029 7.82684 18.4128C8.18781 18.4182 8.54116 18.3087 8.8358 18.1001C9.13043 17.8915 9.35108 17.5946 9.46584 17.2523C9.5758 16.9069 9.57014 16.5351 9.44972 16.1932C9.3293 15.8513 9.10067 15.558 8.79852 15.3577C8.06543 14.8694 7.46493 14.2068 7.05078 13.4293C6.63664 12.6519 6.42178 11.7839 6.42547 10.903C6.42547 10.7923 6.42872 10.6817 6.43524 10.5726C10.1707 14.0564 15.0158 16.11 20.1169 16.3718C20.3744 16.3819 20.6308 16.3334 20.8668 16.2299C21.1028 16.1265 21.3122 15.9707 21.4792 15.7744C21.6445 15.5763 21.7616 15.3424 21.8211 15.0914C21.8807 14.8403 21.8812 14.5788 21.8226 14.3275C21.7272 13.9298 21.6786 13.5223 21.6777 13.1133C21.6792 11.6875 22.2463 10.3206 23.2545 9.31241C24.2626 8.30424 25.6296 7.73719 27.0554 7.73568C27.7889 7.73372 28.5149 7.88385 29.1875 8.17659C29.8601 8.46934 30.4648 8.89835 30.9632 9.43653C31.1554 9.64334 31.3974 9.79752 31.666 9.88443C31.9347 9.97133 32.2211 9.98805 32.498 9.93302C33.1827 9.79978 33.8575 9.62033 34.5179 9.39592C34.0674 10.3175 33.4918 11.1725 32.8073 11.9365Z" fill="#1E1E1E"/>
</svg>
